<?xml version="1.0" encoding="UTF-8" standalone="no"?>
<svg
   xmlns:ooo="http://xml.openoffice.org/svg/export"
   xmlns:dc="http://purl.org/dc/elements/1.1/"
   xmlns:cc="http://creativecommons.org/ns#"
   xmlns:rdf="http://www.w3.org/1999/02/22-rdf-syntax-ns#"
   xmlns:svg="http://www.w3.org/2000/svg"
   xmlns="http://www.w3.org/2000/svg"
   xmlns:xlink="http://www.w3.org/1999/xlink"
   xmlns:sodipodi="http://sodipodi.sourceforge.net/DTD/sodipodi-0.dtd"
   xmlns:inkscape="http://www.inkscape.org/namespaces/inkscape"
   version="1.2"
   width="98.59mm"
   height="98.59mm"
   viewBox="5571 4864 9859 9859"
   preserveAspectRatio="xMidYMid"
   fill-rule="evenodd"
   stroke-width="28.222"
   stroke-linejoin="round"
   xml:space="preserve"
   id="svg4264"
   inkscape:version="0.91 r13725"
   sodipodi:docname="Zombieland.svg"
   inkscape:export-filename="/Users/michael/EclipseProjects/Zombieland/src/package/macosx/Zombieland.png"
   inkscape:export-xdpi="110.15"
   inkscape:export-ydpi="110.15"><metadata
     id="metadata4336"><rdf:RDF><cc:Work
         rdf:about=""><dc:format>image/svg+xml</dc:format><dc:type
           rdf:resource="http://purl.org/dc/dcmitype/StillImage" /><dc:title></dc:title></cc:Work></rdf:RDF></metadata><sodipodi:namedview
     pagecolor="#ffffff"
     bordercolor="#666666"
     borderopacity="1"
     objecttolerance="10"
     gridtolerance="10"
     guidetolerance="10"
     inkscape:pageopacity="0"
     inkscape:pageshadow="2"
     inkscape:window-width="1186"
     inkscape:window-height="689"
     id="namedview4334"
     showgrid="true"
     inkscape:zoom="0.6970394"
     inkscape:cx="89.306292"
     inkscape:cy="174.66732"
     inkscape:window-x="0"
     inkscape:window-y="0"
     inkscape:window-maximized="0"
     inkscape:current-layer="id3"><inkscape:grid
       spacingx="282.22224"
       spacingy="282.22224"
       dotted="false"
       type="xygrid"
       id="grid4408" /></sodipodi:namedview><defs
     class="ClipPathGroup"
     id="defs4266"><linearGradient
       style="fill-opacity:1.0;fill:url(#linearGradient4911)"
       id="linearGradient4919"
       x1="7289"
       y1="4232"
       x2="13711"
       y2="15354"
       gradientUnits="userSpaceOnUse"><stop
         offset="0"
         style="stop-color:#adad35;fill-opacity:1;fill:url(#linearGradient4911);stop-opacity:1"
         id="stop4181" /><stop
         offset="1"
         style="stop-color:#ffffbd;fill-opacity:1;fill:url(#linearGradient4911);stop-opacity:1"
         id="stop4183" /></linearGradient><linearGradient
       style="fill-opacity:1.0;fill:url(#linearGradient4911)"
       id="gradient1"
       x1="7289"
       y1="4232"
       x2="13711"
       y2="15354"
       gradientUnits="userSpaceOnUse"><stop
         offset="0"
         style="stop-color:rgb(252, 175, 62);fill-opacity:1.0;fill:url(#linearGradient4911)"
         id="stop4915" /><stop
         offset="1"
         style="stop-color:rgb(206, 92, 0);fill-opacity:1.0;fill:url(#linearGradient4911)"
         id="stop4917" /></linearGradient><inkscape:path-effect
       effect="powerstroke"
       id="path-effect4253"
       is_visible="true"
       offset_points="0,14.111112"
       sort_points="true"
       interpolator_type="CubicBezierJohan"
       interpolator_beta="0.2"
       start_linecap_type="zerowidth"
       linejoin_type="round"
       miter_limit="4"
       end_linecap_type="zerowidth"
       cusp_linecap_type="round" /><clipPath
       id="presentation_clip_path"
       clipPathUnits="userSpaceOnUse"><rect
         x="5571"
         y="4864"
         width="9859"
         height="9859"
         id="rect4269" /></clipPath><filter
       style="color-interpolation-filters:sRGB;"
       inkscape:label="Drop Shadow"
       id="filter5986"><feFlood
         flood-opacity="0.498039"
         flood-color="rgb(0,0,0)"
         result="flood"
         id="feFlood5988" /><feComposite
         in="flood"
         in2="SourceGraphic"
         operator="in"
         result="composite1"
         id="feComposite5990" /><feGaussianBlur
         in="composite1"
         stdDeviation="100"
         result="blur"
         id="feGaussianBlur5992" /><feOffset
         dx="21"
         dy="21"
         result="offset"
         id="feOffset5994" /><feComposite
         in="SourceGraphic"
         in2="offset"
         operator="over"
         result="composite2"
         id="feComposite5996" /></filter><linearGradient
       inkscape:collect="always"
       xlink:href="#linearGradient4919"
       id="linearGradient4911"
       x1="10528.419"
       y1="14732.622"
       x2="10633.536"
       y2="4893.8667"
       gradientUnits="userSpaceOnUse" /><linearGradient
       inkscape:collect="always"
       xlink:href="#linearGradient4185"
       id="linearGradient4187"
       gradientUnits="userSpaceOnUse"
       x1="10528.419"
       y1="14732.622"
       x2="10633.536"
       y2="4893.8667" /><linearGradient
       inkscape:collect="always"
       xlink:href="#linearGradient4919"
       id="linearGradient4426"
       gradientUnits="userSpaceOnUse"
       x1="10528.419"
       y1="14732.622"
       x2="10633.536"
       y2="4893.8667" /><clipPath
       id="clipPath6468"
       clipPathUnits="userSpaceOnUse"><path
         inkscape:connector-curvature="0"
         id="path6470"
         d="M 0,0 800,0 800,800 0,800 0,0 Z" /></clipPath><radialGradient
       id="radialGradient6476"
       spreadMethod="pad"
       gradientTransform="matrix(537.29346,0,0,-515.50775,418.95215,403.37598)"
       gradientUnits="userSpaceOnUse"
       r="1"
       cy="0"
       cx="0"
       fy="-0.0021317101"
       fx="-0.0212759"><stop
         id="stop6478"
         offset="0"
         style="stop-opacity:1;stop-color:#f1f1f1" /><stop
         id="stop6480"
         offset="0.53855596"
         style="stop-opacity:1;stop-color:#f1f1f1" /><stop
         id="stop6482"
         offset="1"
         style="stop-opacity:1;stop-color:#cbcbcb" /></radialGradient><clipPath
       id="clipPath6490"
       clipPathUnits="userSpaceOnUse"><path
         inkscape:connector-curvature="0"
         id="path6492"
         d="M 0,800 800,800 800,0 0,0 0,800 Z" /></clipPath><clipPath
       id="clipPath6498"
       clipPathUnits="userSpaceOnUse"><path
         inkscape:connector-curvature="0"
         id="path6500"
         d="m 83.4243,155.034 586.4717,0 0,-85.3153 -586.4717,0 0,85.3153 z" /></clipPath><clipPath
       id="clipPath6502"
       clipPathUnits="userSpaceOnUse"><path
         inkscape:connector-curvature="0"
         id="path6504"
         d="m 669.896,112.377 c 0,-23.56 -131.287,-42.658 -293.236,-42.658 -161.95,0 -293.236,19.098 -293.236,42.658 0,23.559 131.286,42.657 293.236,42.657 161.949,0 293.236,-19.098 293.236,-42.657" /></clipPath><clipPath
       id="clipPath6506"
       clipPathUnits="userSpaceOnUse"><path
         inkscape:connector-curvature="0"
         id="path6508"
         d="m -32768,32767 65535,0 0,-65535 -65535,0 0,65535 z" /></clipPath><radialGradient
       id="radialGradient6510"
       spreadMethod="pad"
       gradientTransform="matrix(291.7612,0,0,-29.159132,375.15967,109.37793)"
       gradientUnits="userSpaceOnUse"
       r="1"
       cy="0"
       cx="0"
       fy="0"
       fx="0"><stop
         id="stop6512"
         offset="0"
         style="stop-opacity:1;stop-color:#ffffff" /><stop
         id="stop6514"
         offset="1"
         style="stop-opacity:0;stop-color:#ffffff" /></radialGradient><mask
       id="mask6516"
       height="1"
       width="1"
       y="0"
       x="0"
       maskUnits="userSpaceOnUse"><g
         id="g6518"><g
           id="g6520"
           clip-path="url(#clipPath6506)"><g
             id="g6522"><g
               id="g6524"><path
                 inkscape:connector-curvature="0"
                 id="path6526"
                 style="fill:url(#radialGradient6510);stroke:none"
                 d="m -32768,32767 65535,0 0,-65535 -65535,0 0,65535 z" /></g></g></g></g></mask><radialGradient
       id="radialGradient6528"
       spreadMethod="pad"
       gradientTransform="matrix(291.7612,0,0,-29.159132,375.15967,109.37793)"
       gradientUnits="userSpaceOnUse"
       r="1"
       cy="0"
       cx="0"
       fy="0"
       fx="0"><stop
         id="stop6530"
         offset="0"
         style="stop-opacity:1;stop-color:#1d1d1b" /><stop
         id="stop6532"
         offset="1"
         style="stop-opacity:1;stop-color:#000000" /></radialGradient><linearGradient
       inkscape:collect="always"
       xlink:href="#linearGradient4919"
       id="linearGradient6975"
       gradientUnits="userSpaceOnUse"
       x1="10528.419"
       y1="14732.622"
       x2="10633.536"
       y2="4893.8667" /><linearGradient
       inkscape:collect="always"
       xlink:href="#linearGradient4919"
       id="linearGradient6977"
       gradientUnits="userSpaceOnUse"
       x1="10528.419"
       y1="14732.622"
       x2="10633.536"
       y2="4893.8667" /><linearGradient
       inkscape:collect="always"
       xlink:href="#linearGradient4919"
       id="linearGradient6979"
       gradientUnits="userSpaceOnUse"
       x1="10528.419"
       y1="14732.622"
       x2="10633.536"
       y2="4893.8667" /><linearGradient
       inkscape:collect="always"
       xlink:href="#linearGradient4919"
       id="linearGradient6981"
       gradientUnits="userSpaceOnUse"
       x1="10528.419"
       y1="14732.622"
       x2="10633.536"
       y2="4893.8667" /><linearGradient
       inkscape:collect="always"
       xlink:href="#linearGradient4919"
       id="linearGradient6983"
       gradientUnits="userSpaceOnUse"
       x1="10528.419"
       y1="14732.622"
       x2="10633.536"
       y2="4893.8667" /><linearGradient
       inkscape:collect="always"
       xlink:href="#linearGradient4919"
       id="linearGradient6985"
       gradientUnits="userSpaceOnUse"
       x1="10528.419"
       y1="14732.622"
       x2="10633.536"
       y2="4893.8667" /><linearGradient
       inkscape:collect="always"
       xlink:href="#linearGradient4919"
       id="linearGradient6987"
       gradientUnits="userSpaceOnUse"
       x1="10528.419"
       y1="14732.622"
       x2="10633.536"
       y2="4893.8667" /><linearGradient
       inkscape:collect="always"
       xlink:href="#linearGradient4919"
       id="linearGradient6989"
       gradientUnits="userSpaceOnUse"
       x1="10528.419"
       y1="14732.622"
       x2="10633.536"
       y2="4893.8667" /><linearGradient
       inkscape:collect="always"
       xlink:href="#linearGradient4919"
       id="linearGradient6991"
       gradientUnits="userSpaceOnUse"
       x1="10528.419"
       y1="14732.622"
       x2="10633.536"
       y2="4893.8667" /><linearGradient
       inkscape:collect="always"
       xlink:href="#linearGradient4919"
       id="linearGradient6993"
       gradientUnits="userSpaceOnUse"
       x1="10528.419"
       y1="14732.622"
       x2="10633.536"
       y2="4893.8667" /><linearGradient
       inkscape:collect="always"
       xlink:href="#linearGradient4919"
       id="linearGradient6995"
       gradientUnits="userSpaceOnUse"
       x1="10528.419"
       y1="14732.622"
       x2="10633.536"
       y2="4893.8667" /><linearGradient
       inkscape:collect="always"
       xlink:href="#linearGradient4919"
       id="linearGradient7323"
       gradientUnits="userSpaceOnUse"
       x1="10528.419"
       y1="14732.622"
       x2="10633.536"
       y2="4893.8667" /></defs><defs
     class="TextShapeIndex"
     id="defs4271"><g
       ooo:slide="id1"
       ooo:id-list="id3 id4"
       id="g4273" /></defs><defs
     class="EmbeddedBulletChars"
     id="defs4275"><g
       id="bullet-char-template(57356)"
       transform="scale(0.00048828125,-0.00048828125)"><path
         d="M 580,1141 L 1163,571 580,0 -4,571 580,1141 Z"
         id="path4278" /></g><g
       id="bullet-char-template(57354)"
       transform="scale(0.00048828125,-0.00048828125)"><path
         d="M 8,1128 L 1137,1128 1137,0 8,0 8,1128 Z"
         id="path4281" /></g><g
       id="bullet-char-template(10146)"
       transform="scale(0.00048828125,-0.00048828125)"><path
         d="M 174,0 L 602,739 174,1481 1456,739 174,0 Z M 1358,739 L 309,1346 659,739 1358,739 Z"
         id="path4284" /></g><g
       id="bullet-char-template(10132)"
       transform="scale(0.00048828125,-0.00048828125)"><path
         d="M 2015,739 L 1276,0 717,0 1260,543 174,543 174,936 1260,936 717,1481 1274,1481 2015,739 Z"
         id="path4287" /></g><g
       id="bullet-char-template(10007)"
       transform="scale(0.00048828125,-0.00048828125)"><path
         d="M 0,-2 C -7,14 -16,27 -25,37 L 356,567 C 262,823 215,952 215,954 215,979 228,992 255,992 264,992 276,990 289,987 310,991 331,999 354,1012 L 381,999 492,748 772,1049 836,1024 860,1049 C 881,1039 901,1025 922,1006 886,937 835,863 770,784 769,783 710,716 594,584 L 774,223 C 774,196 753,168 711,139 L 727,119 C 717,90 699,76 672,76 641,76 570,178 457,381 L 164,-76 C 142,-110 111,-127 72,-127 30,-127 9,-110 8,-76 1,-67 -2,-52 -2,-32 -2,-23 -1,-13 0,-2 Z"
         id="path4290" /></g><g
       id="bullet-char-template(10004)"
       transform="scale(0.00048828125,-0.00048828125)"><path
         d="M 285,-33 C 182,-33 111,30 74,156 52,228 41,333 41,471 41,549 55,616 82,672 116,743 169,778 240,778 293,778 328,747 346,684 L 369,508 C 377,444 397,411 428,410 L 1163,1116 C 1174,1127 1196,1133 1229,1133 1271,1133 1292,1118 1292,1087 L 1292,965 C 1292,929 1282,901 1262,881 L 442,47 C 390,-6 338,-33 285,-33 Z"
         id="path4293" /></g><g
       id="bullet-char-template(9679)"
       transform="scale(0.00048828125,-0.00048828125)"><path
         d="M 813,0 C 632,0 489,54 383,161 276,268 223,411 223,592 223,773 276,916 383,1023 489,1130 632,1184 813,1184 992,1184 1136,1130 1245,1023 1353,916 1407,772 1407,592 1407,412 1353,268 1245,161 1136,54 992,0 813,0 Z"
         id="path4296" /></g><g
       id="bullet-char-template(8226)"
       transform="scale(0.00048828125,-0.00048828125)"><path
         d="M 346,457 C 273,457 209,483 155,535 101,586 74,649 74,723 74,796 101,859 155,911 209,963 273,989 346,989 419,989 480,963 531,910 582,859 608,796 608,723 608,648 583,586 532,535 482,483 420,457 346,457 Z"
         id="path4299" /></g><g
       id="bullet-char-template(8211)"
       transform="scale(0.00048828125,-0.00048828125)"><path
         d="M -4,459 L 1135,459 1135,606 -4,606 -4,459 Z"
         id="path4302" /></g></defs><defs
     class="TextEmbeddedBitmaps"
     id="defs4304" /><g
     id="id3"
     transform="translate(3.7811269e-6,0)"
     style="stroke:#ffffff;stroke-opacity:1;stroke-width:400.00002262;stroke-miterlimit:4;stroke-dasharray:none;filter:url(#filter5986);fill-opacity:1;fill:url(#linearGradient4911)"
     inkscape:export-xdpi="115.29"
     inkscape:export-ydpi="115.29"><g
       id="g4316"
       style="stroke:#ffffff;stroke-opacity:1;stroke-width:400.00002262;stroke-miterlimit:4;stroke-dasharray:none;fill:url(#linearGradient4187);fill-opacity:1"
       inkscape:export-xdpi="132.7"
       inkscape:export-ydpi="132.7"><defs
         id="defs4318"
         style="fill-opacity:1;fill:url(#linearGradient4187)"><linearGradient
           gradientUnits="userSpaceOnUse"
           y2="15354"
           x2="13711"
           y1="4232"
           x1="7289"
           id="linearGradient4185"
           style="fill-opacity:1;fill:url(#linearGradient4187)"><stop
             id="stop4321"
             style="stop-color:#2d6d3b;fill-opacity:1;fill:url(#linearGradient4187);stop-opacity:1"
             offset="0" /><stop
             id="stop4323"
             style="stop-color:#5bd894;fill-opacity:1;fill:url(#linearGradient4187);stop-opacity:1"
             offset="1" /></linearGradient></defs><path
         inkscape:connector-curvature="0"
         id="path4325"
         d="m 10500,14493 -319,-9 -308,-29 -299,-47 -292,-68 -287,-87 -283,-109 -281,-129 -281,-152 -271,-167 -253,-179 -236,-191 -219,-204 -204,-219 -191,-236 -179,-253 -167,-271 -152,-281 -129,-281 -109,-283 -87,-287 -68,-292 -47,-299 -29,-308 -9,-319 9,-319 29,-308 47,-299 68,-292 87,-287 109,-283 129,-281 152,-281 167,-271 179,-253 191,-236 204,-219 219,-204 236,-191 253,-179 271,-167 281,-152 281,-129 283,-109 287,-87 292,-68 299,-47 308,-29 319,-9 319,9 308,29 299,47 292,68 287,87 283,109 281,129 281,152 271,167 253,179 236,191 219,204 204,219 191,236 179,253 167,271 152,281 129,281 109,283 87,287 68,292 47,299 29,308 9,319 -9,319 -29,308 -47,299 -68,292 -87,287 -109,283 -129,281 -152,281 -167,271 -179,253 -191,236 -204,219 -219,204 -236,191 -253,179 -271,167 -281,152 -281,129 -283,109 -287,87 -292,68 -299,47 -308,29 -319,9 0,0 z"
         style="fill:url(#linearGradient4187);stroke:#ffffff;stroke-opacity:1;stroke-width:400.00002262;stroke-miterlimit:4;stroke-dasharray:none;fill-opacity:1" /></g><g
       id="g4420"
       style="fill:url(#linearGradient4426)"
       transform="translate(553.74086,-1689.1605)"><path
         inkscape:connector-curvature="0"
         id="path4412"
         d="m 10112.128,10181.873 0,-1411.1115 1411.11,0 z"
         style="fill:#ffffff;fill-opacity:1;fill-rule:evenodd;stroke:#ffffff;stroke-width:28.22222328px;stroke-linecap:butt;stroke-linejoin:miter;stroke-opacity:1" /><path
         inkscape:connector-curvature="0"
         id="path4414"
         d="m 8360.9911,8768.897 1411.111,0 0,1411.111 -1411.111,0 z"
         style="fill:#ffffff;fill-opacity:1;fill-rule:evenodd;stroke:#ffffff;stroke-width:28.22222328px;stroke-linecap:butt;stroke-linejoin:miter;stroke-opacity:1" /><path
         style="fill:#ffffff;fill-opacity:1;fill-rule:evenodd;stroke:#ffffff;stroke-width:28.22222328px;stroke-linecap:butt;stroke-linejoin:miter;stroke-opacity:1"
         d="m 10106.295,10499.789 1411.111,0 0,1411.11 -1411.111,0 z"
         id="path4416"
         inkscape:connector-curvature="0" /><path
         style="fill:#ffffff;fill-opacity:1;fill-rule:evenodd;stroke:#ffffff;stroke-width:28.22222328px;stroke-linecap:butt;stroke-linejoin:miter;stroke-opacity:1"
         d="m 9780.391,10517.321 0,1411.111 -1411.1107,0 z"
         id="path4418"
         inkscape:connector-curvature="0" /></g><g
       id="g7306"
       style="fill:url(#linearGradient7323)"
       transform="matrix(0.30810435,0,0,0.30810435,5579.6109,7508.5192)"><g
         transform="matrix(35.27778,0,0,-35.27778,-3651.1005,23904.612)"
         id="g6494"
         style="fill:url(#linearGradient6993)"><g
           id="g6496"
           style="fill:url(#linearGradient6975)" /><g
           id="g6534"
           style="fill:url(#linearGradient6991)"><g
             style="opacity:0.19999701;fill:url(#linearGradient6989)"
             id="g6536"
             clip-path="url(#clipPath6498)"><g
               id="g6538"
               style="fill:url(#linearGradient6987)"><g
                 id="g6540"
                 clip-path="url(#clipPath6502)"
                 style="fill:url(#linearGradient6985)"><g
                   id="g6542"
                   style="fill:url(#linearGradient6983)"><g
                     id="g6544"
                     style="fill:url(#linearGradient6977)" /><g
                     id="g6546"
                     mask="url(#mask6516)"
                     style="fill:url(#linearGradient6981)"><g
                       id="g6548"
                       style="fill:url(#linearGradient6979)"><path
                         inkscape:connector-curvature="0"
                         id="path6550"
                         style="fill:url(#radialGradient6528);stroke:none"
                         d="m 669.896,112.377 c 0,-23.56 -131.287,-42.658 -293.236,-42.658 -161.95,0 -293.236,19.098 -293.236,42.658 0,23.559 131.286,42.657 293.236,42.657 161.949,0 293.236,-19.098 293.236,-42.657" /></g></g></g></g></g></g></g></g><g
         transform="matrix(35.27778,0,0,-35.27778,7385.5389,11401.154)"
         id="g6552"
         style="fill:url(#linearGradient6995)"><path
           inkscape:connector-curvature="0"
           id="path6554"
           style="fill:#000000;fill-opacity:1;fill-rule:nonzero;stroke:none"
           d="M 0,0 C 0.054,0.551 0.116,1.073 0.195,1.553 0.46,0.992 0.313,0.486 0,0 m -79.313,67.723 c 0.104,-0.834 -1.222,-1.334 -1.613,-0.539 -1.977,4.004 -2.963,8.618 -4.337,12.866 -1.387,4.292 -3.128,8.505 -3.993,12.943 -0.779,4.002 -1.915,8.563 -1.138,12.651 0.955,5.026 1.838,9.924 2.194,15.044 0.078,1.104 1.65,1.265 1.762,0.099 0.001,-0.022 0,-0.051 0.005,-0.077 0.052,-0.08 0.103,-0.159 0.133,-0.268 1.001,-3.765 0.822,-7.828 1.122,-11.696 0.37,-4.812 1.205,-9.426 1.994,-14.173 1.474,-8.89 2.78,-17.906 3.871,-26.85 m 145.754,337.02 c 1.124,-0.004 2.21,-0.453 3.027,-1.661 1.537,-2.274 -0.024,-2.51 -1.53,-2.127 -2.229,0.565 -2.341,2.059 -1.497,3.788 m 250.588,-54.829 c -5.677,1.228 -9.6,0.656 -14.955,-1.799 -0.671,-0.307 -1.491,-0.742 -2.303,-1.261 -2.667,1.608 -7.494,5.509 -10.676,4.954 -5.408,-0.944 -10.019,-5.704 -14.594,-8.56 -3.417,-2.133 -11.463,-6.41 -15.129,-11.338 -1.626,0.652 -4.023,1.701 -5.171,0.591 -3.935,-3.809 -6.862,-6.767 -9.576,-11.661 -3.496,-6.301 -3.606,-13.308 -9.049,-18.798 -6.09,-6.146 -12.385,-10.589 -19.88,-14.901 -4.591,-2.64 -8.14,-6.351 -13.332,-7.755 -5.583,-1.511 -9.217,-3.007 -14.021,-6.371 -5.613,-3.928 -8.447,-9.372 -12.302,-15.038 -0.174,-0.256 -0.444,-0.588 -0.762,-0.965 -1.613,0.436 -3.738,-0.164 -5.346,-0.102 -6.537,0.253 -13.148,0.402 -19.709,0.402 -6.314,0 -12.581,1.411 -18.904,1.456 -5.413,0.038 -11.237,-0.916 -16.734,-1.398 0.36,0.805 1.157,1.662 2.62,2.573 1.019,0.635 0.335,2.091 -0.789,1.872 -2.82,-0.55 -8.465,-4.84 -9.361,-0.814 -0.405,1.823 -2.2,1.832 -3.615,2.035 -2.641,0.377 -5.475,-0.738 -8.078,-0.955 -4.059,-0.34 -9.281,8.628 -12.003,10.939 -1.856,1.575 -5.508,0.759 -7.56,0.511 -4.222,-0.51 -6.573,-0.239 -10.028,2.713 -3.536,3.025 -7.656,5.1 -12.018,6.579 0.42,0.65 1.124,0.9 2.199,1.972 1.147,1.141 3.48,2.285 4.878,2.98 1.346,0.671 2.344,1.885 2.013,3.525 -0.434,2.14 -0.855,4.262 -1.26,6.385 10.442,1.557 18.989,-11.248 29.12,-7.321 2.796,1.084 5.063,3.065 5.279,6.24 0.246,3.583 -2.411,6.04 -2.64,9.243 1.928,1.522 4.14,2.571 4.878,5.281 0.614,2.251 -0.069,6.021 -2.437,7.199 -1.805,0.896 -4.127,0.263 -5.977,-0.285 -0.473,-0.141 -1.593,-0.688 -1.976,-1.338 -1.706,-0.786 -3.449,-1.789 -5.185,-2.553 -0.031,0.247 -0.058,0.495 -0.098,0.733 -0.188,1.122 -0.449,2.225 -0.631,3.346 -0.308,1.922 -1.714,1.198 -3.191,1.217 -1.742,0.022 -2.073,-0.633 -2.019,-2.232 0.035,-0.955 0.185,-1.922 0.448,-2.837 0.124,-0.429 0.192,-0.864 0.25,-1.297 -1.417,0.189 -2.796,0.881 -4.106,2.393 -3.852,4.446 -0.381,11.931 5.555,11.304 3.334,-0.352 5.421,-1.843 8.532,-1.547 0.104,-0.098 0.235,-0.169 0.373,-0.166 0.188,0.005 0.319,0.024 0.432,0.056 0.19,-0.01 0.381,0.066 0.465,0.247 0.561,1.215 2.259,0.969 3.091,1.783 1.244,1.217 0.852,2.542 0.827,4.2 -0.016,1.073 -0.413,2.091 -1.395,2.675 -0.54,0.322 -1.079,0.56 -1.66,0.791 -0.435,0.172 -1.471,0.91 -2.232,1.737 0.203,0.571 0.454,1.116 0.641,1.699 0.024,0.025 0.053,0.031 0.074,0.059 1.1,1.465 2.368,2.251 3.566,3.52 0.286,0.304 0.366,0.765 0.147,1.132 -0.838,1.398 -2.613,2.217 -3.37,3.542 -2.325,4.07 -0.41,8.068 1.354,11.7 0.306,0.629 -0.058,1.419 -0.815,1.419 -15.852,0.009 4.121,12.03 -2.763,16.367 -8.444,5.32 -12.865,14.495 -21.029,20.293 -1.486,1.055 -3.499,2.847 -5.593,4.242 1.037,1.458 2.614,2.564 4.171,3.433 0.396,0.222 0.82,0.398 1.249,0.536 -0.139,-0.335 -0.263,-0.673 -0.36,-1.012 -0.724,-2.538 4.461,-5.244 6.159,-3.546 0.623,0.623 0.253,2.328 -0.063,3.004 -0.784,1.687 -1.949,2.515 -3.722,2.671 1.735,2.747 5.286,5.786 6.505,6.623 0.218,0.15 0.139,0.489 -0.137,0.5 -2.003,0.081 -3.164,-1.582 -4.536,-2.885 -1.241,-1.177 -2.473,-2.682 -3.335,-4.288 -2.505,-0.428 -5.014,-2.376 -6.431,-4.7 -1.121,0.704 -2.251,1.254 -3.33,1.496 0.639,2.591 2.189,5.115 3.359,7.286 1.836,3.404 4.014,6.505 6.682,9.309 0.142,0.149 -0.046,0.419 -0.224,0.293 -3.641,-2.589 -5.701,-6.453 -7.751,-10.33 -1.006,-1.904 -2.121,-4.182 -2.563,-6.478 -0.117,0.016 -0.237,0.05 -0.353,0.057 -0.513,0.03 -1.038,0.039 -1.556,0.064 -0.075,0.513 -0.124,1.029 -0.197,1.49 -0.212,1.355 -0.669,2.519 -1.227,3.754 -1.094,2.414 -2.753,3.775 -5.117,4.86 -0.269,0.123 -0.468,-0.22 -0.231,-0.393 2.573,-1.885 4.531,-3.734 5.515,-6.871 0.269,-0.858 0.395,-1.862 0.624,-2.815 -4.981,0.202 -10.107,0.125 -15.012,-0.418 -5.449,-0.603 -10.945,-2.117 -16.092,-3.99 -2.115,-0.768 -6.556,-4.534 -7.642,-5.313 -0.424,-0.303 -3.313,-2.303 -4.068,-2.873 -0.433,0.331 -1.2,0.256 -1.327,-0.394 -0.479,-2.439 -0.874,-2.955 1.124,-4.953 3.32,-3.319 4.54,-2.566 -0.549,-5.236 -0.241,-0.126 -0.458,-0.46 -0.425,-0.739 0.643,-5.378 7.441,-5.031 -1.925,-7.412 -1.96,-0.498 0.422,-7.473 -0.081,-7.199 -1.679,0.916 -7.093,2.329 -8.429,0.051 -0.458,-0.784 -0.096,-3.329 -0.095,-3.738 -10e-4,1.07 -3.247,2.796 -4.188,3.315 -0.422,0.232 -0.898,0.014 -1.049,-0.427 -2.476,-7.221 0.535,-14.886 5.217,-20.991 -0.1,-0.168 -0.188,-0.351 -0.266,-0.551 -0.674,-1.756 -0.705,-3.008 -0.705,-4.922 0,-4.745 -0.141,-7.534 -2.166,-11.988 -1.126,-2.475 -0.235,-4.395 1.699,-5.977 5.428,-4.44 2.594,-7.825 1.956,-13.584 -0.015,-0.141 0.211,-0.166 0.244,-0.033 1.154,4.642 4.089,7.97 0.61,12.014 -2.66,3.089 -6.352,2.135 -2.906,9.714 0.387,0.853 0.87,2.556 1.215,3.517 0.922,2.572 -1.136,8.459 0.657,11.386 1.952,-2.476 4.166,-4.689 6.391,-6.481 -2.636,-1.433 -3.547,-4.375 -3.908,-7.834 -0.082,-0.802 0.452,-1.981 1.245,-2.959 -2.02,-3.286 1.258,-8.087 3.769,-10.366 0.1,-0.09 0.284,0.034 0.195,0.15 -1.124,1.456 -2.244,2.901 -3.202,4.475 -1.054,1.997 -1.097,3.692 -0.178,5.098 1.094,-1.04 2.456,-1.576 3.449,-0.545 1.889,1.965 -0.189,4.256 -2.508,2.734 -0.581,-0.381 -1.027,-0.81 -1.362,-1.271 -0.448,0.395 -0.756,1.27 -0.911,2.684 -0.267,3.009 1.272,6.009 3.738,7.584 0.391,-0.307 0.781,-0.614 1.17,-0.895 1.531,-1.106 3.215,-2.316 4.949,-3.588 -0.984,-2.854 -1.035,-6.274 -0.955,-8.837 0.048,-1.531 0.481,-3.425 1.925,-4.272 6.636,-3.887 2.642,-8.643 1.541,-14.211 -0.046,-0.235 0.279,-0.325 0.359,-0.099 1.418,4.004 3.953,7.81 1.871,12.13 -0.637,1.323 -1.23,2.102 -2.704,2.565 -3.75,1.178 -3.339,7.515 -1.411,12.261 4.609,-3.398 9.483,-7.203 12.775,-10.744 4.085,-4.393 7.766,-8.964 7.239,-15.378 -0.067,-2.905 -0.912,-5.395 -2.535,-7.47 -0.271,-0.388 -0.85,-1.233 -1.424,-2.07 -7.214,-4.247 -12.974,-2.454 -20.88,-2.448 -1.951,10e-4 -4.231,-0.451 -5.934,-1.449 -6.25,-3.66 -10.962,-5.782 -18.618,-2.008 -2.188,1.078 -10.883,2.141 -13.401,0.789 -3.285,0.288 -6.709,0.013 -9.184,-1.555 -13.85,-8.775 -23.696,-21.562 -33.718,-34.368 -3.887,-4.96 -11.104,-9.526 -13.796,-15.267 -3.588,-7.648 -9.166,-10.972 -15.29,-16.137 -0.508,-0.427 -0.676,-1.418 0.1,-1.72 0.736,-0.288 1.487,-0.645 2.308,-0.594 4.948,0.308 8.671,0.672 0.772,-5.311 -0.591,-0.45 -0.331,-1.236 0.179,-1.461 -1.632,-1.524 -3.259,-3.017 -4.371,-4.558 -3.979,-5.521 -6.418,-11.984 -9.328,-18.111 -2.509,-5.285 -1.015,-13.916 2.755,-19.163 0.438,-1.267 1.105,-2.529 1.783,-3.73 0.902,-8.556 0.09,-17.381 0.581,-26.075 0.242,-4.293 1.962,-8.642 2.208,-12.985 0.314,-5.574 0.816,-11.05 1.819,-16.541 1.67,-9.168 3.764,-17.771 6.556,-26.714 3.88,-12.407 10.397,-23.179 10.995,-36.267 -0.794,-0.711 -1.543,-1.475 -2.194,-1.947 -1.61,-1.172 -2.658,-3.194 -2.954,-5.144 -0.272,-1.769 1.876,-3.707 2.709,-5.093 0.714,-1.184 1.538,-3.142 2.805,-4.035 -1.857,-1.842 -3.911,-3.59 -5.304,-5.552 -2.186,-3.08 -3.544,-6.696 -4.531,-10.306 -1.152,-4.222 -0.333,-10.198 1.394,-15.547 -2.408,-4.182 -4.213,-8.99 -6.043,-12.933 -0.927,-2.002 -3.02,-4.482 -3.437,-6.721 -0.115,-0.631 -0.208,-4.444 -2.441,-2.812 -1.988,1.457 -1.172,2.722 -0.868,5.087 0.083,0.636 0.341,9.695 -3.215,7.328 -2.342,-1.561 -1.78,-5.705 -3.266,-7.675 -1.11,-1.475 -3.382,-4.968 -3.262,-6.878 0.261,-4.264 8.99,-9.618 11.81,-13.081 1.477,-1.808 5.049,-8.703 7.359,-8.856 2.479,-0.163 6.233,2.345 7.499,4.459 -1.981,-3.304 -2.204,-6.56 -6.756,-7.413 -3.344,-0.625 -6.501,1.903 -9.559,1.097 -0.448,-0.116 -0.746,-0.709 -0.562,-1.136 2.034,-4.684 3.791,-6.82 8.767,-8.658 1.775,-0.655 4.982,-2.377 6.663,-0.476 3.664,4.144 8.28,7.401 12.018,11.556 3.087,3.425 4.59,8.952 6.278,13.55 0.077,-0.167 0.158,-0.33 0.233,-0.5 1.889,-4.236 -1.484,-9.1 -3.527,-12.838 -1.82,-3.326 -5.618,-8.242 -3.187,-12.073 0.192,-0.305 0.579,-0.416 0.912,-0.312 4.133,1.288 7.594,7.541 10.124,10.957 3.072,4.147 7.951,9.609 7.248,15.274 -0.634,5.101 -1.76,10.912 -3.78,15.547 -1.129,2.596 -1.591,5.321 -1.923,8.062 1.802,-2.586 4.038,-4.835 6.155,-5.928 4.053,-2.087 11.448,-2.882 14.817,0.899 0.798,0.894 -0.146,1.915 -0.824,2.381 -1.454,1.003 -1.377,-0.656 -4.305,1.598 -2.291,1.764 -3.652,3.711 -5.313,5.943 -2.602,3.493 -4.796,7.594 -7.318,11.212 -1.951,2.806 -5.581,6.257 -7.222,9.628 1.543,7.225 4.223,14.945 7.96,21.205 2.98,4.99 -7.829,6.649 -7.434,11.741 0.404,5.149 1.071,7.179 -2.642,11.325 -0.024,0.029 -1.077,0.863 -2.125,1.449 -0.299,10.633 -2.793,29.504 -2.742,31.621 0.206,8.78 -3.144,17.451 -2.61,26.138 0.359,5.838 0.695,11.717 0.979,17.589 0.955,5.845 1.631,11.738 3.021,17.535 0.876,3.652 1.731,6.108 1.44,9.955 -0.028,0.371 -1.766,6.169 -1.752,6.179 2.615,1.974 4.003,5.476 6.236,7.905 3.308,3.593 5.626,6.951 7.831,11.28 1.56,3.06 5.031,5.211 7.354,7.8 0.653,-2.305 1.736,-4.504 3.744,-4.702 0.293,-0.028 0.538,0.069 0.744,0.239 1.391,-5.975 4.065,-11.856 5.451,-17.615 0.048,-0.202 0.141,-0.348 0.253,-0.47 -0.629,-8.37 -0.666,-16.74 -0.591,-25.272 0.056,-6.653 -0.347,-13.068 -0.819,-19.735 -0.429,-6.048 2.699,-10.957 2.283,-16.967 -1.954,1.295 -4.877,2.365 -6.487,2.937 -0.762,0.271 -1.685,-0.6 -1.381,-1.381 0.976,-2.493 1.895,-4.989 3.069,-7.397 -0.387,0.793 -2.088,1.294 -4.296,1.394 -0.76,0.035 -1.351,-0.929 -0.905,-1.577 1.939,-2.813 5.088,-4.638 7.136,-7.349 2.213,-2.93 -2.809,-8.05 -1.675,-11.951 0.482,-1.655 2.204,-5.184 0.132,-6.295 -0.674,-0.362 -1.279,-1.25 -1.647,-1.872 -0.667,-1.125 -1.902,-2.492 -0.631,-3.763 1.613,-1.613 5.993,0.316 5.974,-2.881 -0.031,-5.275 1.391,-10.917 2.308,-16.025 1.216,-6.773 9.516,-14.492 15.497,-17.873 -0.373,-1.721 -0.757,-3.433 -1.133,-5.126 -1.859,-8.403 -5.846,-13.771 -12.172,-19.134 -0.477,-0.405 -0.234,-1.325 0.381,-1.442 4.663,-0.881 6.146,-0.747 2.985,-5.335 -1.177,-1.71 -1.379,-3.72 -0.286,-5.322 0.24,-0.351 0.602,-0.511 1.024,-0.416 1.735,0.391 3.152,1.246 4.49,2.251 -1.584,-2.97 -3.127,-5.962 -4.392,-9.094 -1.875,-4.638 -3.65,-9.322 -5.699,-13.887 -2.281,-5.081 -2.67,-10.703 -5.021,-15.853 -3.841,-8.418 -7.533,-18.672 -13.455,-25.795 -7.07,-8.503 -17.108,-14.893 -26.7,-20.15 -15.579,-8.54 -19.694,-24.102 -26.509,-39.203 -2.086,-4.62 -5.665,-8.419 -7.84,-13.051 -2.441,-5.191 -4.256,-10.627 -6.578,-15.857 -3.245,-7.311 -4.709,-21.936 -13.24,-25.243 -2.822,0.473 -5.598,1.215 -8.839,2.291 -3.413,1.132 -7.541,0.656 -9.768,-2.374 -4.405,-5.991 -5.653,-9.866 -4.569,-17.133 0.524,-3.518 3.599,-6.278 4.454,-9.726 1.355,-5.465 2.244,-10.143 0.85,-15.745 -2.195,-8.805 -13.587,-23.473 -4.452,-32.071 11.17,-10.51 23.894,2.985 34.894,-4.605 3.895,-2.689 8.249,2.856 12.206,2.058 4.461,-0.901 9.62,-0.671 12.972,2.545 6.562,6.295 -3.468,19.237 -11.216,17.543 -3.962,-0.867 -4.005,-0.82 -7.814,-2.725 -0.193,-0.096 -1.312,7.689 -1.627,9.36 -1.274,6.735 -9.333,15.617 -5.498,22.879 2.761,5.223 4.943,10.297 5.584,16.215 0.138,1.265 0.248,2.559 0.353,3.864 0.088,0.049 0.174,0.114 0.253,0.214 2.538,3.244 5.63,6.919 8.495,9.852 3.233,3.31 8.5,5.87 11.075,9.725 5.8,8.684 15.23,14.716 20.763,23.372 5.434,8.506 11.155,15.473 15.466,24.718 3.386,7.266 14.286,24.634 23.456,24.652 6.77,0.012 4.788,8.319 8.409,10.743 4.089,2.736 12.078,7.089 13.734,11.816 0.615,1.755 -0.089,6.423 -0.071,8.176 0.052,4.74 3.592,13.839 5.502,18.274 1.782,4.138 4.343,9.373 6.803,13.152 1.246,1.917 1.657,4.208 2.343,6.369 0.251,-0.944 0.605,-1.842 0.977,-2.573 0.289,-0.566 0.58,-1.448 0.935,-2.352 0.588,-3.793 1.946,-8.598 1.238,-9.596 -1.549,-2.184 -1.158,-4.125 0.705,-5.892 3.058,-2.902 1.333,-8.6 4.573,-11.296 0.372,-0.31 1.037,-0.247 1.158,0.305 0.696,3.223 3.818,8.098 2.118,11.146 -2.053,3.682 1.586,8.437 -0.749,12.348 -2.708,4.529 3.425,15.079 3.272,20.361 -0.064,2.206 2.056,4.052 1.16,6.033 -0.904,1.997 3.832,2.675 3.282,4.864 4.533,-6.552 11.624,-10.959 16.743,-17.014 2.999,-3.55 5.004,-6.868 4.985,-11.698 -0.002,-0.273 0.112,-0.494 0.288,-0.694 3.525,-4.029 6.753,2.537 11.271,-4.904 2.166,-3.566 4.688,-5.362 8.019,-7.962 3.697,-2.884 6.584,-7.128 9.723,-10.628 3.039,-3.393 -3.147,-7.183 2.878,-9.04 6.192,-1.907 0.783,-7.67 2.699,-10.946 1.541,-2.628 3.86,-2.423 3.868,-6.568 0.004,-1.398 0.85,-3.013 1.371,-4.252 1.158,-2.765 0.418,-7.66 0.425,-10.75 0.007,-3.481 2.105,-13.417 0.178,-16.266 -3.62,-5.348 -4.547,-13.12 -5.614,-19.258 -0.817,-4.711 0.922,-14.364 3.578,-18.268 0.384,-0.566 1.243,-0.494 1.452,0.191 0.905,2.944 0.18,5.769 0.623,8.849 0.004,0.026 1.228,3.783 1.235,3.763 0.357,-1.17 0.115,-2.713 0.616,-3.852 1.359,-3.088 1.6,-5.975 3.798,-8.572 0.284,-0.336 0.817,-0.198 1.029,0.133 0.953,1.635 2.142,3.095 3.533,4.404 0.291,-2.19 0.919,-4.42 2.118,-6.773 2.095,-4.103 5.204,-7.167 8.606,-10.177 5.276,-4.671 9.763,-11.743 12.243,-18.334 1.708,-4.533 6.15,-8.15 8.022,-12.909 1.477,-3.754 2.876,-8.249 5.036,-11.568 2.143,-3.294 3.396,-7.027 5.388,-10.414 2.73,-4.64 1.23,-7.637 1.253,-12.604 0.04,-8.367 2.108,-4.196 8.604,-9.701 5.415,-4.588 -2.427,-16.848 7.663,-18.996 4.081,-0.868 12.555,-2.061 15.361,2.4 3.121,4.962 4.067,10.277 9.238,13.884 4.779,3.331 9.478,3.515 14.92,4.412 5.96,0.982 10.714,4.093 17.025,4.457 2.565,0.148 4.242,-0.016 6.201,1.92 2.037,2.011 4.274,3.994 5.072,6.896 0.885,3.218 -0.53,6.777 3.993,5.89 4.916,-0.964 7.879,8.693 8.927,11.648 2.454,6.925 1.342,12.517 -5.607,16.1 -3.769,1.944 -8.575,-0.938 -10.635,-4 -4.993,-7.424 -17.252,-9.738 -25.49,-11.99 -5.989,-1.637 -11.68,-3.789 -17.98,-4.032 -4.194,-0.162 -8.064,0.89 -11.363,3.539 -1.241,0.996 -2.699,3.788 -4.048,4.518 -8.691,4.693 -16.323,15.369 -18.958,24.721 -1.513,5.371 -2.333,10.794 -3.182,16.3 -0.603,3.921 0.371,9.764 -1.611,13.407 -2.446,4.496 -4.117,9.11 -6.913,13.412 -0.099,0.15 -0.204,0.293 -0.304,0.441 4.18,-0.818 7.131,-3.292 8.832,-7.447 0.122,-0.833 1.431,-0.606 1.432,0.193 0.001,0.639 -0.026,1.247 -0.04,1.871 0.195,-0.006 0.246,0.101 -0.01,0.433 -0.248,9.08 -2.058,16.602 -4.597,25.577 -1.239,4.378 -5.148,6.489 -8.456,9.054 -7.442,5.77 -0.043,12.255 -1.582,18.472 -0.841,3.398 -3.565,5.858 0.071,8.71 1.948,1.528 3.344,3.789 2.639,6.345 -0.2,0.729 -0.571,1.483 -1.081,2.046 -3.247,3.583 -1.557,9.157 -1.066,13.313 0.534,4.509 -0.837,7.198 -3.822,10.362 -4.348,4.614 -8.793,9.218 -12.808,14.123 -4.139,5.058 -9.989,8.322 -14.13,13.537 -7.482,9.418 -10.685,21.449 -19.058,30.149 -4.778,4.964 -10.779,8.741 -15.917,13.353 -4.473,4.015 -8.103,10.84 -10.614,16.263 -1.967,4.246 -4.466,8.469 -7.15,12.39 0.165,0.285 0.302,0.573 0.49,0.855 1.675,2.514 4.581,3.723 6.089,6.298 0.384,0.659 0.571,1.867 0.321,2.53 -1.369,3.645 -0.119,7.153 -1.121,10.793 -0.612,2.227 -3.616,5.968 -3.288,7.936 0.401,2.401 0.913,5.402 0.122,7.775 -0.556,1.672 -3.144,3.468 -5.684,4.988 0.237,2.627 -0.171,5.192 -0.162,7.839 0.014,4.43 4.321,5.464 5.98,8.68 0.165,0.317 0.144,0.71 -0.125,0.969 -1.426,1.378 -4.204,0.048 -6.279,-1.222 0.637,1.336 1.139,2.652 1.174,4.297 0.551,0.376 1.184,0.574 1.479,1.223 0.111,0.248 -0.025,0.495 -0.299,0.519 -0.922,0.081 -1.201,0.236 -2.113,-0.229 -1.132,-0.576 -1.86,-1.534 -2.818,-2.32 -0.181,-0.148 -0.347,-0.357 -0.501,-0.576 -1.285,2.739 -2.812,5.395 -3.831,8.208 -1.69,4.668 2.546,9.382 4.13,13.449 1.065,2.734 3.094,6.552 0.855,9.316 -2.973,3.671 -2.451,8.708 -3.733,13.265 2.37,0.8 4.874,0.95 6.942,2.535 3.46,2.653 7.845,3.736 11.018,6.962 3.695,3.754 6.772,8.003 10.041,12.122 5.799,7.31 11.13,14.304 15.306,22.672 0.434,0.872 0.738,2.175 0.898,3.646 0.684,0.648 1.31,1.434 1.998,1.935 1.761,1.284 3.507,2.92 4.713,4.738 1.25,1.886 2.474,3.777 3.991,5.407 0.505,0.544 1.043,1.1 1.449,1.727 2.696,-0.993 5.684,-0.488 8.594,-1.024 4.344,-0.8 8.4,-1.506 12.868,-1.55 1.674,-0.017 4.741,-0.668 6.167,0.596 4.721,4.185 11.724,-0.041 16.065,-2.201 0.534,-0.266 1.282,0.048 1.253,0.718 -0.095,2.133 -0.82,4.074 -1.047,6.252 8.608,-1.842 18.144,-1.235 26.688,-1.655 6.208,-0.307 12.539,2.211 18.336,4.033 3.414,1.073 7.589,2.739 11.528,3.739 1.037,-0.55 2.044,-1.325 2.602,-1.722 1.632,-1.162 3.925,-1.593 5.707,-2.441 1.711,-0.814 4.906,-1.769 6.887,-1.438 4.19,0.699 4.123,8.841 4.429,13.465 9.885,6.616 20.351,12.105 28.445,21.262 5.492,6.213 10.89,12.168 15.659,19.023 2.275,3.27 4.345,6.953 6.641,10.464 2.594,0.673 2.016,0.344 4.039,2.419 5.385,5.523 7.247,1.47 11.92,1.473 4.769,0.004 9.142,-2.346 14.12,-2.341 6.158,0.005 11.668,3.848 17.944,3.045 5.183,-0.663 8.321,-7.9 13.237,-8.394 7.198,-0.723 7.478,3.247 3.001,8.136 -3.288,3.592 -7.136,6.852 -12,7.167 -2.535,0.163 -4.502,1.442 -6.885,1.193 -2.639,-0.275 -3.204,4.294 -3.265,6.287 3.049,1.935 6.27,3.216 9.601,4.859 13.931,6.873 11.632,2.611 17.87,-0.863 4.44,-2.472 5.874,-6.301 10.59,-7.059 3.035,-0.488 3.255,-2.277 5.587,-2.655 0.629,-0.103 1.314,0.522 0.895,1.164 -2.401,3.695 -5.543,7.01 -8.618,10.163 -1.631,1.671 -5.534,9.382 -8.623,9.91 -4.7,0.804 -9.905,0.484 -14.779,-0.847 2.414,3.238 2.131,7.432 5.665,9.929 4.5,3.181 10.84,-0.043 15.758,-2.168 4.57,-1.976 11.189,-1.801 16.204,0.087 0.455,0.171 2.593,-2.593 2.622,-2.098 0.413,7.278 -19.414,12.773 -25.076,13.997" /></g></g><text
       xml:space="preserve"
       style="font-style:normal;font-weight:normal;font-size:1128.88891602px;line-height:125%;font-family:sans-serif;letter-spacing:0px;word-spacing:0px;fill:#ffffff;fill-opacity:1;stroke:none;stroke-width:1px;stroke-linecap:butt;stroke-linejoin:miter;stroke-opacity:1"
       x="7292.3403"
       y="12183"
       id="text4428"
       sodipodi:linespacing="125%"><tspan
         sodipodi:role="line"
         id="tspan4430"
         x="7292.3403"
         y="12183"
         style="font-style:normal;font-variant:normal;font-weight:normal;font-stretch:normal;font-size:1693.33337402px;line-height:125%;font-family:sans-serif;-inkscape-font-specification:'sans-serif, Normal';text-align:start;writing-mode:lr-tb;text-anchor:start">Zombie</tspan></text>
</g></svg>